<svg width="360" height="760" viewBox="0 0 360 760" fill="none" xmlns="http://www.w3.org/2000/svg">
  <!-- Outer phone frame -->
  <rect x="6" y="6" width="348" height="748" rx="48" fill="#0A0A0A"/>
  <rect x="6" y="6" width="348" height="748" rx="48" stroke="#1F1F1F" stroke-width="12"/>

  <!-- Side buttons -->
  <rect x="0" y="150" width="6" height="80" rx="3" fill="#1F1F1F"/>
  <rect x="0" y="250" width="6" height="54" rx="3" fill="#1F1F1F"/>
  <rect x="354" y="200" width="6" height="110" rx="3" fill="#1F1F1F"/>

  <!-- Dynamic Island / notch -->
  <rect x="120" y="20" width="120" height="28" rx="14" fill="#141414"/>

  <!-- Screen area -->
  <rect x="18" y="60" width="324" height="682" rx="36" fill="url(#screenGradient)"/>

  <!-- Minimal UI mock -->
  <g opacity="0.9">
    <rect x="42" y="100" width="276" height="56" rx="14" fill="rgba(255,255,255,0.08)" stroke="rgba(255,255,255,0.14)"/>
    <rect x="42" y="172" width="220" height="14" rx="7" fill="rgba(255,255,255,0.6)"/>
    <rect x="42" y="196" width="180" height="12" rx="6" fill="rgba(255,255,255,0.35)"/>

    <rect x="42" y="244" width="276" height="150" rx="18" fill="rgba(255,255,255,0.08)" stroke="rgba(255,255,255,0.14)"/>
    <rect x="58" y="266" width="130" height="12" rx="6" fill="rgba(255,255,255,0.6)"/>
    <rect x="58" y="288" width="100" height="12" rx="6" fill="rgba(255,255,255,0.35)"/>

    <rect x="42" y="414" width="276" height="150" rx="18" fill="rgba(255,255,255,0.08)" stroke="rgba(255,255,255,0.14)"/>
    <rect x="58" y="436" width="140" height="12" rx="6" fill="rgba(255,255,255,0.6)"/>
    <rect x="58" y="458" width="86" height="12" rx="6" fill="rgba(255,255,255,0.35)"/>

    <rect x="42" y="582" width="276" height="64" rx="14" fill="rgba(255,255,255,0.12)"/>
  </g>

  <defs>
    <linearGradient id="screenGradient" x1="180" y1="60" x2="180" y2="742" gradientUnits="userSpaceOnUse">
      <stop stop-color="#1B1B1B"/>
      <stop offset="1" stop-color="#0F0F0F"/>
    </linearGradient>
  </defs>
</svg>

